<?xml version="1.0" encoding="utf-8"?>
<!-- Generator: Adobe Illustrator 27.0.0, SVG Export Plug-In . SVG Version: 6.00 Build 0)  -->
<svg version="1.0" id="Layer_1" xmlns="http://www.w3.org/2000/svg" xmlns:xlink="http://www.w3.org/1999/xlink" x="0px" y="0px"
	 viewBox="0 0 841.89 595.28" style="enable-background:new 0 0 841.89 595.28;" xml:space="preserve">
<g>
	<path d="M269.95,284.12h-36.07v51.69h41.58l-3.2,23.28h-63.68v-164.1h63.38v23.49h-38.07v42.37h36.07V284.12z"/>
	<path d="M288.1,271.16c0-25.83,0-33.46-0.25-39.23h24.17c0.46,2.92,0.92,7.9,0.92,11.57c3.69-7.38,10.49-13.53,23.44-13.53
		c15.47,0,26.12,9.39,26.12,33.41v95.71H337.2v-90.93c0-11.48-3.96-15.5-10.94-15.5c-9.01,0-12.85,4.79-12.85,22.06v84.38H288.1
		V271.16z"/>
	<path d="M372.53,231.93h13.5v-30.52h25.28v30.52h15.95v22.19h-15.95v75.19c0,6.01,0.83,10.82,8.5,10.82c2.24,0,5.55-0.25,6.9-0.74
		v19.08c-4.28,2.06-10.67,2.53-15.44,2.53c-15.89,0-25.24-5.13-25.24-27.15v-79.72h-13.5V231.93z"/>
	<path d="M439.68,275.02c0-21.11,0.22-30.11-0.25-43.09h23.98c0.25,2.45,0.71,13.76,0.71,20.59c5.04-17.19,16.22-22.44,28.03-22.49
		v31.2c-14.51,0.03-27.16,3.71-27.16,29.76v68.1h-25.31V275.02z"/>
	<path d="M525.23,302.24v18.68c0,9.82,2.27,18.8,11.88,18.8c10.08,0,11.33-9.02,11.33-18.17v-0.61h24.66v0.58
		c0,13.34-2.85,39.52-35.4,39.52c-32.38,0-37.13-20.06-37.13-45.76v-41.67c0-17.39,5.48-43.65,37-43.65
		c27.15,0,35.99,18.31,35.99,43.47c0,7.44,0,21.5,0,28.81H525.23z M573.86,185.55l-28.81,32.96h-21.6l22.22-32.96H573.86z
		 M549.33,282.43v-13.02c0-11.76-2.71-18.12-11.79-18.12c-8.15,0-12.09,5.79-12.09,18.15v12.99H549.33z"/>
	<path d="M611.71,302.24v18.68c0,9.82,2.27,18.8,11.88,18.8c10.08,0,11.33-9.02,11.33-18.17v-0.61h24.66v0.58
		c0,13.34-2.85,39.52-35.4,39.52c-32.38,0-37.13-20.06-37.13-45.76v-41.67c0-17.39,5.48-43.65,37-43.65
		c27.15,0,35.99,18.31,35.99,43.47c0,7.44,0,21.5,0,28.81H611.71z M635.81,282.43v-13.02c0-11.76-2.71-18.12-11.79-18.12
		c-8.15,0-12.09,5.79-12.09,18.15v12.99H635.81z"/>
</g>
</svg>
