<?xml version="1.0" encoding="utf-8"?>
<!-- Generator: Adobe Illustrator 27.0.0, SVG Export Plug-In . SVG Version: 6.00 Build 0)  -->
<svg version="1.1" id="Layer_1" xmlns="http://www.w3.org/2000/svg" xmlns:xlink="http://www.w3.org/1999/xlink" x="0px" y="0px"
	 viewBox="0 0 595.28 841.89" style="enable-background:new 0 0 595.28 841.89;" xml:space="preserve">
<style type="text/css">
	.st0{fill:url(#SVGID_1_);}
	.st1{fill:url(#SVGID_00000141438839425859481380000005350544092903593396_);}
	.st2{fill:url(#SVGID_00000042014887262323917820000014594430343914145719_);}
	.st3{fill:url(#SVGID_00000078002522125451561720000001618898016152478612_);}
	.st4{fill:url(#SVGID_00000129913190323988195760000001171402941387172486_);}
	.st5{fill:url(#SVGID_00000123405195246545002820000013476254458818355386_);}
	.st6{fill:url(#SVGID_00000140702748452933451710000010459169131284572302_);}
	.st7{fill:url(#SVGID_00000099620227897301914800000016194029185676361130_);}
	.st8{fill:url(#SVGID_00000092414788190807109340000001626942223899424428_);}
	.st9{fill:url(#SVGID_00000084525220367946707330000007564005483333115528_);}
	.st10{fill:url(#SVGID_00000064325593732381696550000010277909641729755545_);}
	.st11{fill:url(#SVGID_00000001645004519317298540000008529058454987425669_);}
	.st12{fill:url(#SVGID_00000082330752729933603690000002793219663762919311_);}
	.st13{fill:url(#SVGID_00000008845338700786466760000016939127927172739717_);}
	.st14{fill:url(#SVGID_00000098926714203616278280000010869828480853945262_);}
	.st15{fill:url(#SVGID_00000160159076943574581680000006873349829555957401_);}
	.st16{fill:url(#SVGID_00000136370909324942908870000018102697116508961211_);}
	.st17{fill:url(#SVGID_00000026865217839817121630000004747832991629030811_);}
	.st18{fill:url(#SVGID_00000155121116800641457640000013107907973658082231_);}
	.st19{fill:url(#SVGID_00000154388265805690241800000005034362550402548103_);}
	.st20{fill:url(#SVGID_00000071562057185239375350000001459770708125853858_);}
	.st21{fill:url(#SVGID_00000183235157643081765960000010636751068053695646_);}
	.st22{fill:url(#SVGID_00000106834182008101434420000014875289617932929212_);}
	.st23{fill:url(#SVGID_00000154394823884922166900000007209725132113996725_);}
	.st24{fill:url(#SVGID_00000103952894236818550850000006877941197465018017_);}
	.st25{fill:url(#SVGID_00000169536884861175191970000009739872192031871361_);}
	.st26{fill:url(#SVGID_00000016071119110373570100000005481224446715435943_);}
	.st27{fill:url(#SVGID_00000073707552024417825460000017323508206157637504_);}
	.st28{fill:url(#SVGID_00000175324129011842948770000004837095524231049856_);}
	.st29{fill:url(#SVGID_00000032630782373619762910000003067680599714686618_);}
</style>
<linearGradient id="SVGID_1_" gradientUnits="userSpaceOnUse" x1="29.4306" y1="359.3657" x2="-91.4343" y2="238.5008">
	<stop  offset="0" style="stop-color:#151F12"/>
	<stop  offset="0.0231" style="stop-color:#1F2A1A"/>
	<stop  offset="0.0977" style="stop-color:#354729"/>
	<stop  offset="0.1745" style="stop-color:#496233"/>
	<stop  offset="0.2523" style="stop-color:#5A7A39"/>
	<stop  offset="0.3314" style="stop-color:#678D3D"/>
	<stop  offset="0.4123" style="stop-color:#709B3F"/>
	<stop  offset="0.4962" style="stop-color:#76A440"/>
	<stop  offset="0.5879" style="stop-color:#78A841"/>
</linearGradient>
<path class="st0" d="M93.13,180.76c-0.69,1.07-1.43,2.12-2.06,3.23c-1.46,3.17-2.97,6.31-4.54,9.43
	C56.21,253.86,5.84,304.21-58.34,333.63c-13.8,6.32-28.22,11.7-43.23,15.98c-37.32,10.64-74.87,13.67-111.01,10.03
	c1.41,0.93,2.85,1.84,4.27,2.75c2.85,1.82,5.75,3.56,8.66,5.28c52.91,31.14,115.75,45.47,180.08,38.36
	C49.2,350.32,89.74,267.58,93.13,180.76z"/>
<linearGradient id="SVGID_00000150075967624098769700000005705739356824535431_" gradientUnits="userSpaceOnUse" x1="112.5718" y1="505.7687" x2="297.1223" y2="321.2182">
	<stop  offset="0" style="stop-color:#11170E"/>
	<stop  offset="0.0841" style="stop-color:#1F2C1C"/>
	<stop  offset="0.1844" style="stop-color:#283D24"/>
	<stop  offset="0.2939" style="stop-color:#2E4B29"/>
	<stop  offset="0.4141" style="stop-color:#33562C"/>
	<stop  offset="0.5507" style="stop-color:#355E2E"/>
	<stop  offset="0.7173" style="stop-color:#376330"/>
	<stop  offset="1" style="stop-color:#376430"/>
</linearGradient>
<path style="fill:url(#SVGID_00000150075967624098769700000005705739356824535431_);" d="M209.81,594.54
	c-0.55-1.15-1.07-2.32-1.68-3.44c-1.95-2.89-3.84-5.82-5.69-8.78c-35.81-57.36-52.57-126.58-44.26-196.7
	c1.79-15.07,4.71-30.19,8.87-45.23c10.35-37.4,27.32-71.03,49.24-99.99c-1.53,0.72-3.05,1.47-4.57,2.22
	c-3.04,1.49-6.03,3.05-9.02,4.65c-54.13,28.96-99.1,75.14-126.52,133.76C87.94,468.74,137.46,546.44,209.81,594.54z"/>
<linearGradient id="SVGID_00000050620540509657528520000007669660997031709326_" gradientUnits="userSpaceOnUse" x1="-51.8353" y1="670.3485" x2="-51.8353" y2="461.2237">
	<stop  offset="0" style="stop-color:#FFFFFF"/>
	<stop  offset="1" style="stop-color:#000000"/>
</linearGradient>
<path style="fill:url(#SVGID_00000050620540509657528520000007669660997031709326_);" d="M-206.62,497.58
	c1.28,0.05,2.55,0.15,3.83,0.14c3.47-0.35,6.95-0.64,10.43-0.87c67.47-4.52,136.41,13.36,194.32,53.76
	c12.45,8.68,24.4,18.39,35.7,29.16c28.1,26.77,49.75,57.59,64.94,90.58c0.09-1.69,0.14-3.38,0.2-5.08
	c0.12-3.38,0.16-6.76,0.16-10.14c0-61.39-19.51-122.82-58.26-174.65C-38.2,449.45-130.07,456.47-206.62,497.58z"/>
<linearGradient id="SVGID_00000079445048799824199900000015457842774889238686_" gradientUnits="userSpaceOnUse" x1="346.2426" y1="786.2321" x2="8.6103" y2="448.5997">
	<stop  offset="0" style="stop-color:#11180E"/>
	<stop  offset="0.9996" style="stop-color:#3B5E2C"/>
</linearGradient>
<path style="fill:url(#SVGID_00000079445048799824199900000015457842774889238686_);" d="M209.81,594.54
	c-25.7-17.09-48.5-37.92-67.77-61.6c-34.98-42.98-58.28-95.36-65.85-151.92c-6.99,14.94-12.9,30.65-17.46,47.13
	c-7.1,25.64-10.63,51.47-10.94,76.96c-0.11,9.31,0.21,18.57,0.95,27.77c0.89,11.06,2.4,22,4.47,32.8
	c5.55,28.96,15.24,56.85,28.63,82.77c1.62,3.13,3.27,6.24,4.99,9.31l0.15-0.09c8.61,16.21,23.37,29.08,42.11,34.62
	c6.4,1.89,12.85,2.8,19.18,2.82c19.16,0.08,37.28-8,50.12-21.84c0.94-1.01,1.85-2.04,2.73-3.11c5.29-6.45,9.52-13.96,12.28-22.36
	c0.36-1.08,0.69-2.18,1-3.29C219.18,627.23,217.06,609.6,209.81,594.54z"/>
<radialGradient id="SVGID_00000090264529189068905570000010065022720436487868_" cx="87.1441" cy="685.9008" r="63.4055" gradientTransform="matrix(0.9738 -0.2273 0.5446 2.3337 -386.0416 -1130.1327)" gradientUnits="userSpaceOnUse">
	<stop  offset="2.760384e-04" style="stop-color:#FFFFFF;stop-opacity:0.33"/>
	<stop  offset="1" style="stop-color:#FFFFFF;stop-opacity:0"/>
</radialGradient>
<path style="fill:url(#SVGID_00000090264529189068905570000010065022720436487868_);" d="M106.89,598.71
	c19.32-4.51,31.6-29.82,35.15-65.77c-34.98-42.98-58.28-95.36-65.85-151.92c-6.99,14.94-12.9,30.65-17.46,47.13
	c-7.1,25.64-10.63,51.47-10.94,76.96c-0.11,9.31,0.21,18.57,0.95,27.77c0.89,11.06,2.4,22,4.47,32.8
	C70.61,589.77,89.87,602.68,106.89,598.71z"/>
<linearGradient id="SVGID_00000005963963191040029060000009893673462886601653_" gradientUnits="userSpaceOnUse" x1="254.9278" y1="38.7775" x2="27.2788" y2="433.0773">
	<stop  offset="2.312588e-04" style="stop-color:#589140"/>
	<stop  offset="0.2554" style="stop-color:#699C3F"/>
	<stop  offset="0.7571" style="stop-color:#93BA3B"/>
	<stop  offset="1" style="stop-color:#ACD037"/>
</linearGradient>
<path style="fill:url(#SVGID_00000005963963191040029060000009893673462886601653_);" d="M218.63,198.76
	c-1.72-6.45-4.3-12.42-7.58-17.84c-9.91-16.4-26.25-27.66-44.75-31.41c-1.35-0.27-2.71-0.52-4.08-0.71
	c-8.26-1.16-16.87-0.86-25.49,1.16c-1.11,0.26-2.22,0.54-3.33,0.86c-17.25,4.92-31.2,15.91-40.29,29.94
	c-1.05,26.95-5.69,53.5-13.63,78.98c-17.65,56.6-51.64,107.87-99.07,146.29c16.39-1.81,32.88-4.95,49.33-9.64
	c25.58-7.29,49.48-17.73,71.4-30.74c8.01-4.75,15.75-9.85,23.21-15.27c23.38-16.97,44.01-37.08,61.46-59.51
	c7.21-9.27,13.89-18.92,19.97-28.93c1.83-3.01,3.63-6.04,5.35-9.11l-0.15-0.08C220.35,236.95,223.66,217.66,218.63,198.76z"/>
<radialGradient id="SVGID_00000077307078697712624510000003243227344057438615_" cx="339.4232" cy="734.4338" r="63.4055" gradientTransform="matrix(0.7431 0.9619 -2.0342 1.5715 1290.2683 -1115.3938)" gradientUnits="userSpaceOnUse">
	<stop  offset="2.760384e-04" style="stop-color:#FFFFFF;stop-opacity:0.7"/>
	<stop  offset="1" style="stop-color:#FFFFFF;stop-opacity:0"/>
</radialGradient>
<path style="fill:url(#SVGID_00000077307078697712624510000003243227344057438615_);" d="M79.5,259.74
	c-17.65,56.6-51.64,107.87-99.07,146.29c16.39-1.81,32.88-4.95,49.33-9.64c25.58-7.29,49.48-17.73,71.4-30.74
	c8.01-4.75,15.75-9.85,23.21-15.27c23.38-16.97,44.01-37.08,61.46-59.51c-0.28-9.73-2.94-18.33-8.31-25.28
	C160.99,244.2,123.15,243.4,79.5,259.74z"/>
<linearGradient id="SVGID_00000150788368177015379690000008962389959186462616_" gradientUnits="userSpaceOnUse" x1="44.6846" y1="428.4203" x2="-274.4003" y2="428.4203">
	<stop  offset="0" style="stop-color:#E6E6E5"/>
	<stop  offset="1" style="stop-color:#0D0D0D"/>
</linearGradient>
<path style="fill:url(#SVGID_00000150788368177015379690000008962389959186462616_);" d="M-266.28,395.86
	c-9.11,16.86-10.53,36.65-4.38,54.49c0.45,1.3,0.93,2.59,1.46,3.87c3.19,7.71,7.82,14.98,13.92,21.38c0.79,0.82,1.59,1.64,2.43,2.43
	c12.99,12.37,29.54,18.82,46.24,19.54c76.54-41.11,168.42-48.12,251.3-17.1c-9.88-13.21-20.94-25.83-33.32-37.63
	C-7.9,424.5-29.01,409.2-51.34,396.9c-8.16-4.49-16.48-8.58-24.93-12.26c-37.42-16.32-77.46-24.76-117.52-25.33
	c-3.52-0.05-7.05-0.06-10.57,0.01l0.01,0.17c-18.36-0.05-36.66,6.89-50.4,20.8C-259.44,385.04-263.27,390.29-266.28,395.86z"/>
<g>
	
		<linearGradient id="SVGID_00000179638613784440930850000004669301813087224764_" gradientUnits="userSpaceOnUse" x1="309.7426" y1="463.0943" x2="309.7426" y2="371.6924">
		<stop  offset="2.312588e-04" style="stop-color:#589140"/>
		<stop  offset="0.2554" style="stop-color:#699C3F"/>
		<stop  offset="0.7571" style="stop-color:#93BA3B"/>
		<stop  offset="1" style="stop-color:#ACD037"/>
	</linearGradient>
	<path style="fill:url(#SVGID_00000179638613784440930850000004669301813087224764_);" d="M303.44,463.09h-16.99v-91.4h46.59v15.76
		h-29.6v22.47h28.23v15.76h-28.23V463.09z"/>
	
		<linearGradient id="SVGID_00000150803069862558660590000009271191991141213587_" gradientUnits="userSpaceOnUse" x1="376.6152" y1="463.0943" x2="376.6152" y2="371.6924">
		<stop  offset="2.312588e-04" style="stop-color:#589140"/>
		<stop  offset="0.2554" style="stop-color:#699C3F"/>
		<stop  offset="0.7571" style="stop-color:#93BA3B"/>
		<stop  offset="1" style="stop-color:#ACD037"/>
	</linearGradient>
	<path style="fill:url(#SVGID_00000150803069862558660590000009271191991141213587_);" d="M350.44,463.09h-18.64l37.96-91.4h13.29
		l38.37,91.4h-18.77l-9.73-23.57h-32.34L350.44,463.09z M376.48,395.67l-9.87,28.09h19.6L376.48,395.67z"/>
	
		<linearGradient id="SVGID_00000079450082132518317400000012343946379695883661_" gradientUnits="userSpaceOnUse" x1="455.6157" y1="463.0943" x2="455.6157" y2="371.6924">
		<stop  offset="2.312588e-04" style="stop-color:#589140"/>
		<stop  offset="0.2554" style="stop-color:#699C3F"/>
		<stop  offset="0.7571" style="stop-color:#93BA3B"/>
		<stop  offset="1" style="stop-color:#ACD037"/>
	</linearGradient>
	<path style="fill:url(#SVGID_00000079450082132518317400000012343946379695883661_);" d="M462.67,463.09h-13.84l-35.63-91.4h17.81
		l24.67,69.48l24.67-69.48h17.68L462.67,463.09z"/>
	
		<linearGradient id="SVGID_00000084525377593856340310000013808396463197034931_" gradientUnits="userSpaceOnUse" x1="530.1616" y1="463.0943" x2="530.1616" y2="371.6924">
		<stop  offset="2.312588e-04" style="stop-color:#589140"/>
		<stop  offset="0.2554" style="stop-color:#699C3F"/>
		<stop  offset="0.7571" style="stop-color:#93BA3B"/>
		<stop  offset="1" style="stop-color:#ACD037"/>
	</linearGradient>
	<path style="fill:url(#SVGID_00000084525377593856340310000013808396463197034931_);" d="M554.76,463.09h-49.2v-91.4h49.2v15.76
		h-32.2v22.47h30.83v15.76h-30.83v21.65h32.2V463.09z"/>
	
		<linearGradient id="SVGID_00000141449576390595128620000003603807149392590777_" gradientUnits="userSpaceOnUse" x1="599.5009" y1="463.0943" x2="599.5009" y2="371.6924">
		<stop  offset="2.312588e-04" style="stop-color:#589140"/>
		<stop  offset="0.2554" style="stop-color:#699C3F"/>
		<stop  offset="0.7571" style="stop-color:#93BA3B"/>
		<stop  offset="1" style="stop-color:#ACD037"/>
	</linearGradient>
	<path style="fill:url(#SVGID_00000141449576390595128620000003603807149392590777_);" d="M585.59,463.09H568.6v-91.4h27.96
		c11.97,0,20.74,3.34,26.31,10c4.47,5.39,6.71,11.51,6.71,18.36c0,6.94-1.92,13.07-5.75,18.36c-3.84,5.3-9.87,8.95-18.09,10.96
		l24.67,33.71h-20.42l-24.39-34.94V463.09z M585.59,387.45v27.96h10.83c5.02,0,9-1.26,11.92-3.79c2.92-2.52,4.39-5.99,4.39-10.4
		c0-4.22-1.49-7.57-4.45-10.05c-2.97-2.48-6.92-3.72-11.85-3.72H585.59z"/>
	
		<linearGradient id="SVGID_00000178911236815558029040000016331706159017244073_" gradientUnits="userSpaceOnUse" x1="660.6865" y1="463.0943" x2="660.6865" y2="371.6924">
		<stop  offset="2.312588e-04" style="stop-color:#589140"/>
		<stop  offset="0.2554" style="stop-color:#699C3F"/>
		<stop  offset="0.7571" style="stop-color:#93BA3B"/>
		<stop  offset="1" style="stop-color:#ACD037"/>
	</linearGradient>
	<path style="fill:url(#SVGID_00000178911236815558029040000016331706159017244073_);" d="M669.18,463.09h-16.86v-75.64h-16.99
		v-15.76h50.7v15.76h-16.85V463.09z"/>
	
		<linearGradient id="SVGID_00000067957158071803907620000003603837681180332201_" gradientUnits="userSpaceOnUse" x1="737.4941" y1="464.8755" x2="737.4941" y2="369.9112">
		<stop  offset="2.312588e-04" style="stop-color:#589140"/>
		<stop  offset="0.2554" style="stop-color:#699C3F"/>
		<stop  offset="0.7571" style="stop-color:#93BA3B"/>
		<stop  offset="1" style="stop-color:#ACD037"/>
	</linearGradient>
	<path style="fill:url(#SVGID_00000067957158071803907620000003603837681180332201_);" d="M737.56,464.88
		c-13.25,0-24.53-4.64-33.85-13.91c-9.32-9.27-13.98-20.44-13.98-33.5c0-13.06,4.66-24.25,13.98-33.57s20.6-13.98,33.85-13.98
		c13.16,0,24.39,4.64,33.71,13.91c9.32,9.27,13.98,20.49,13.98,33.64c0,13.07-4.66,24.23-13.98,33.5
		C761.95,460.24,750.72,464.88,737.56,464.88z M737.56,385.67c-8.5,0-15.76,3.11-21.79,9.32c-6.03,6.21-9.04,13.7-9.04,22.47
		c0,8.68,3.01,16.12,9.04,22.34c6.03,6.21,13.29,9.32,21.79,9.32s15.76-3.08,21.79-9.25c6.03-6.17,9.04-13.64,9.04-22.41
		s-3.01-16.26-9.04-22.47C753.32,388.78,746.06,385.67,737.56,385.67z"/>
	
		<linearGradient id="SVGID_00000072995060935984785700000017893595384589541524_" gradientUnits="userSpaceOnUse" x1="834.9941" y1="463.0943" x2="834.9941" y2="371.6924">
		<stop  offset="2.312588e-04" style="stop-color:#589140"/>
		<stop  offset="0.2554" style="stop-color:#699C3F"/>
		<stop  offset="0.7571" style="stop-color:#93BA3B"/>
		<stop  offset="1" style="stop-color:#ACD037"/>
	</linearGradient>
	<path style="fill:url(#SVGID_00000072995060935984785700000017893595384589541524_);" d="M814.85,463.09h-16.99v-91.4h19.32
		l37.96,66.46v-66.46h16.99v91.4h-18.91l-38.37-66.32V463.09z"/>
</g>
<g>
	
		<linearGradient id="SVGID_00000094593046328510060220000007973407955749891494_" gradientUnits="userSpaceOnUse" x1="315.7172" y1="532.4805" x2="315.7172" y2="480.4268">
		<stop  offset="0" style="stop-color:#11170E"/>
		<stop  offset="0.0841" style="stop-color:#1F2C1C"/>
		<stop  offset="0.1844" style="stop-color:#283D24"/>
		<stop  offset="0.2939" style="stop-color:#2E4B29"/>
		<stop  offset="0.4141" style="stop-color:#33562C"/>
		<stop  offset="0.5507" style="stop-color:#355E2E"/>
		<stop  offset="0.7173" style="stop-color:#376330"/>
		<stop  offset="1" style="stop-color:#376430"/>
	</linearGradient>
	<path style="fill:url(#SVGID_00000094593046328510060220000007973407955749891494_);" d="M309.77,512.14v-1.81h32.39
		c-0.8,6.21-3.72,11.45-8.74,15.73c-5.02,4.28-10.82,6.42-17.4,6.42c-7.33,0-13.62-2.55-18.87-7.65c-5.25-5.1-7.87-11.21-7.87-18.34
		c0-7.23,2.59-13.38,7.76-18.46s11.42-7.61,18.76-7.61c4.57,0,8.89,1.09,12.96,3.28c4.07,2.18,7.21,5.11,9.42,8.78h-2.41
		c-5.23-6.83-11.87-10.25-19.92-10.25c-6.79,0-12.59,2.38-17.39,7.14c-4.8,4.76-7.21,10.49-7.21,17.19c0,6.55,2.43,12.21,7.28,16.96
		c4.85,4.76,10.65,7.14,17.39,7.14c5.63,0,10.75-1.79,15.35-5.37c4.6-3.58,7.41-7.97,8.41-13.16H309.77z"/>
	
		<linearGradient id="SVGID_00000154417067878740965440000013309555887158953614_" gradientUnits="userSpaceOnUse" x1="357.2245" y1="531.5762" x2="357.2245" y2="494.6641">
		<stop  offset="0" style="stop-color:#11170E"/>
		<stop  offset="0.0841" style="stop-color:#1F2C1C"/>
		<stop  offset="0.1844" style="stop-color:#283D24"/>
		<stop  offset="0.2939" style="stop-color:#2E4B29"/>
		<stop  offset="0.4141" style="stop-color:#33562C"/>
		<stop  offset="0.5507" style="stop-color:#355E2E"/>
		<stop  offset="0.7173" style="stop-color:#376330"/>
		<stop  offset="1" style="stop-color:#376430"/>
	</linearGradient>
	<path style="fill:url(#SVGID_00000154417067878740965440000013309555887158953614_);" d="M349.92,531.58v-36.01h1.96v6.48
		c2.25-4.47,6.46-6.93,12.66-7.38v2.03c-3.25,0.25-5.83,1.08-7.75,2.49c-1.92,1.41-3.22,2.99-3.89,4.75
		c-0.67,1.76-1.01,4.47-1.01,8.14v19.51H349.92z"/>
	
		<linearGradient id="SVGID_00000010304156234091546130000002054530210827320728_" gradientUnits="userSpaceOnUse" x1="382.9496" y1="532.4805" x2="382.9496" y2="494.6641">
		<stop  offset="0" style="stop-color:#11170E"/>
		<stop  offset="0.0841" style="stop-color:#1F2C1C"/>
		<stop  offset="0.1844" style="stop-color:#283D24"/>
		<stop  offset="0.2939" style="stop-color:#2E4B29"/>
		<stop  offset="0.4141" style="stop-color:#33562C"/>
		<stop  offset="0.5507" style="stop-color:#355E2E"/>
		<stop  offset="0.7173" style="stop-color:#376330"/>
		<stop  offset="1" style="stop-color:#376430"/>
	</linearGradient>
	<path style="fill:url(#SVGID_00000010304156234091546130000002054530210827320728_);" d="M401.22,512.89v0.98h-34.43
		c0.3,4.88,1.98,8.9,5.05,12.06c3.06,3.16,6.8,4.74,11.22,4.74c2.96,0,5.72-0.85,8.29-2.54c2.56-1.69,4.54-3.99,5.95-6.88h2.18
		c-1.41,3.42-3.6,6.14-6.59,8.17c-2.99,2.03-6.27,3.05-9.83,3.05c-4.97,0-9.28-1.91-12.92-5.73c-3.64-3.82-5.46-8.31-5.46-13.48
		c0-5.12,1.78-9.5,5.35-13.15c3.57-3.64,7.86-5.46,12.88-5.46c4.92,0,9.2,1.81,12.84,5.45C399.4,503.74,401.22,508,401.22,512.89z
		 M366.79,512.07h32.32c-0.35-4.35-2.1-8.03-5.24-11.06c-3.14-3.02-6.79-4.54-10.96-4.54c-4.22,0-7.83,1.46-10.85,4.39
		C369.05,503.78,367.29,507.52,366.79,512.07z"/>
	
		<linearGradient id="SVGID_00000126313621554931249720000015468677365672942720_" gradientUnits="userSpaceOnUse" x1="424.9086" y1="532.4805" x2="424.9086" y2="494.6641">
		<stop  offset="0" style="stop-color:#11170E"/>
		<stop  offset="0.0841" style="stop-color:#1F2C1C"/>
		<stop  offset="0.1844" style="stop-color:#283D24"/>
		<stop  offset="0.2939" style="stop-color:#2E4B29"/>
		<stop  offset="0.4141" style="stop-color:#33562C"/>
		<stop  offset="0.5507" style="stop-color:#355E2E"/>
		<stop  offset="0.7173" style="stop-color:#376330"/>
		<stop  offset="1" style="stop-color:#376430"/>
	</linearGradient>
	<path style="fill:url(#SVGID_00000126313621554931249720000015468677365672942720_);" d="M443.18,512.89v0.98h-34.43
		c0.3,4.88,1.98,8.9,5.05,12.06c3.06,3.16,6.8,4.74,11.22,4.74c2.96,0,5.72-0.85,8.29-2.54c2.56-1.69,4.54-3.99,5.95-6.88h2.18
		c-1.41,3.42-3.6,6.14-6.59,8.17c-2.99,2.03-6.27,3.05-9.83,3.05c-4.97,0-9.28-1.91-12.92-5.73c-3.64-3.82-5.46-8.31-5.46-13.48
		c0-5.12,1.78-9.5,5.35-13.15c3.57-3.64,7.86-5.46,12.88-5.46c4.92,0,9.2,1.81,12.84,5.45C441.36,503.74,443.18,508,443.18,512.89z
		 M408.75,512.07h32.32c-0.35-4.35-2.1-8.03-5.24-11.06c-3.14-3.02-6.79-4.54-10.96-4.54c-4.22,0-7.83,1.46-10.85,4.39
		C411.01,503.78,409.25,507.52,408.75,512.07z"/>
	
		<linearGradient id="SVGID_00000173124586829293109080000008069505677738195889_" gradientUnits="userSpaceOnUse" x1="467.6977" y1="531.5762" x2="467.6977" y2="494.6641">
		<stop  offset="0" style="stop-color:#11170E"/>
		<stop  offset="0.0841" style="stop-color:#1F2C1C"/>
		<stop  offset="0.1844" style="stop-color:#283D24"/>
		<stop  offset="0.2939" style="stop-color:#2E4B29"/>
		<stop  offset="0.4141" style="stop-color:#33562C"/>
		<stop  offset="0.5507" style="stop-color:#355E2E"/>
		<stop  offset="0.7173" style="stop-color:#376330"/>
		<stop  offset="1" style="stop-color:#376430"/>
	</linearGradient>
	<path style="fill:url(#SVGID_00000173124586829293109080000008069505677738195889_);" d="M451.16,495.57h1.96v6.85
		c1.05-2.26,2.92-4.12,5.6-5.57c2.68-1.46,5.62-2.18,8.83-2.18c5.01,0,9.22,1.71,12.62,5.12c2.71,2.71,4.06,6.68,4.06,11.9v19.89
		h-1.96v-19.84c0-4.61-1.35-8.31-4.06-11.09c-2.7-2.78-6.29-4.17-10.75-4.17c-4.21,0-7.71,1.35-10.52,4.06
		c-2.56,2.46-3.83,5.91-3.83,10.37v20.67h-1.96V495.57z"/>
	
		<linearGradient id="SVGID_00000091732900888889776770000008938117234450607510_" gradientUnits="userSpaceOnUse" x1="526.1161" y1="531.5762" x2="526.1161" y2="481.3301">
		<stop  offset="0" style="stop-color:#11170E"/>
		<stop  offset="0.0841" style="stop-color:#1F2C1C"/>
		<stop  offset="0.1844" style="stop-color:#283D24"/>
		<stop  offset="0.2939" style="stop-color:#2E4B29"/>
		<stop  offset="0.4141" style="stop-color:#33562C"/>
		<stop  offset="0.5507" style="stop-color:#355E2E"/>
		<stop  offset="0.7173" style="stop-color:#376330"/>
		<stop  offset="1" style="stop-color:#376430"/>
	</linearGradient>
	<path style="fill:url(#SVGID_00000091732900888889776770000008938117234450607510_);" d="M513.84,531.58v-50.25h24.56v1.81h-22.6
		v22.22h22.6v1.81h-22.6v24.41H513.84z"/>
	
		<linearGradient id="SVGID_00000052783872670105247610000004579981770536393147_" gradientUnits="userSpaceOnUse" x1="563.1415" y1="532.4805" x2="563.1415" y2="494.6641">
		<stop  offset="0" style="stop-color:#11170E"/>
		<stop  offset="0.0841" style="stop-color:#1F2C1C"/>
		<stop  offset="0.1844" style="stop-color:#283D24"/>
		<stop  offset="0.2939" style="stop-color:#2E4B29"/>
		<stop  offset="0.4141" style="stop-color:#33562C"/>
		<stop  offset="0.5507" style="stop-color:#355E2E"/>
		<stop  offset="0.7173" style="stop-color:#376330"/>
		<stop  offset="1" style="stop-color:#376430"/>
	</linearGradient>
	<path style="fill:url(#SVGID_00000052783872670105247610000004579981770536393147_);" d="M580.58,495.57h1.96v36.01h-1.96v-9.49
		c-3.61,6.93-9.35,10.4-17.22,10.4c-5.51,0-10.16-1.82-13.95-5.46c-3.78-3.64-5.68-8.1-5.68-13.37c0-5.27,1.89-9.76,5.68-13.45
		c3.78-3.69,8.36-5.54,13.72-5.54c4.91,0,9.2,1.53,12.86,4.59c1.75,1.46,3.28,3.39,4.59,5.8V495.57z M563.18,496.47
		c-4.9,0-9.04,1.66-12.41,4.99s-5.06,7.39-5.06,12.19c0,4.75,1.71,8.77,5.14,12.08c3.42,3.3,7.59,4.95,12.49,4.95
		c4.85,0,8.94-1.64,12.26-4.91c3.33-3.28,4.99-7.29,4.99-12.04c0-4.75-1.7-8.81-5.1-12.19
		C572.08,498.16,567.98,496.47,563.18,496.47z"/>
	
		<linearGradient id="SVGID_00000119824128413194609080000007368078297391390598_" gradientUnits="userSpaceOnUse" x1="600.3183" y1="531.5762" x2="600.3183" y2="494.6641">
		<stop  offset="0" style="stop-color:#11170E"/>
		<stop  offset="0.0841" style="stop-color:#1F2C1C"/>
		<stop  offset="0.1844" style="stop-color:#283D24"/>
		<stop  offset="0.2939" style="stop-color:#2E4B29"/>
		<stop  offset="0.4141" style="stop-color:#33562C"/>
		<stop  offset="0.5507" style="stop-color:#355E2E"/>
		<stop  offset="0.7173" style="stop-color:#376330"/>
		<stop  offset="1" style="stop-color:#376430"/>
	</linearGradient>
	<path style="fill:url(#SVGID_00000119824128413194609080000007368078297391390598_);" d="M593.01,531.58v-36.01h1.96v6.48
		c2.25-4.47,6.46-6.93,12.66-7.38v2.03c-3.25,0.25-5.83,1.08-7.75,2.49c-1.92,1.41-3.22,2.99-3.89,4.75
		c-0.67,1.76-1.01,4.47-1.01,8.14v19.51H593.01z"/>
	
		<linearGradient id="SVGID_00000114755006111209979610000010092456355705830566_" gradientUnits="userSpaceOnUse" x1="640.0541" y1="531.5762" x2="640.0541" y2="494.6641">
		<stop  offset="0" style="stop-color:#11170E"/>
		<stop  offset="0.0841" style="stop-color:#1F2C1C"/>
		<stop  offset="0.1844" style="stop-color:#283D24"/>
		<stop  offset="0.2939" style="stop-color:#2E4B29"/>
		<stop  offset="0.4141" style="stop-color:#33562C"/>
		<stop  offset="0.5507" style="stop-color:#355E2E"/>
		<stop  offset="0.7173" style="stop-color:#376330"/>
		<stop  offset="1" style="stop-color:#376430"/>
	</linearGradient>
	<path style="fill:url(#SVGID_00000114755006111209979610000010092456355705830566_);" d="M613.05,495.57h2.11v5.72
		c2.71-4.42,6.55-6.63,11.53-6.63c3.11,0,5.95,0.9,8.51,2.71c2.06,1.46,3.64,3.52,4.75,6.18c0.8-1.91,1.71-3.41,2.71-4.52
		c2.66-2.91,6.08-4.37,10.25-4.37c5.47,0,9.59,2.36,12.35,7.08c1.21,2.06,1.81,5.27,1.81,9.64v20.19h-1.96v-20.15
		c0-5.11-1.15-8.84-3.46-11.2c-2.45-2.5-5.36-3.76-8.71-3.76c-2.35,0-4.54,0.65-6.57,1.96c-2.03,1.3-3.47,3.01-4.32,5.11
		c-0.65,1.6-0.98,4.23-0.98,7.89v20.15h-1.96v-19.77c0-4.66-0.95-8.22-2.85-10.67c-2.4-3.11-5.51-4.66-9.31-4.66
		c-3.66,0-6.66,1.35-9.01,4.06c-1.95,2.26-2.93,5.76-2.93,10.52v20.52h-1.96V495.57z"/>
	
		<linearGradient id="SVGID_00000128467808626926922930000007434845497468773509_" gradientUnits="userSpaceOnUse" x1="693.8036" y1="531.5762" x2="693.8036" y2="481.3301">
		<stop  offset="0" style="stop-color:#11170E"/>
		<stop  offset="0.0841" style="stop-color:#1F2C1C"/>
		<stop  offset="0.1844" style="stop-color:#283D24"/>
		<stop  offset="0.2939" style="stop-color:#2E4B29"/>
		<stop  offset="0.4141" style="stop-color:#33562C"/>
		<stop  offset="0.5507" style="stop-color:#355E2E"/>
		<stop  offset="0.7173" style="stop-color:#376330"/>
		<stop  offset="1" style="stop-color:#376430"/>
	</linearGradient>
	<path style="fill:url(#SVGID_00000128467808626926922930000007434845497468773509_);" d="M677.31,481.33h1.96v21.09
		c1.1-2.31,2.98-4.18,5.64-5.61c2.66-1.43,5.56-2.15,8.72-2.15c6.06,0,10.62,2.03,13.68,6.1c2,2.66,3.01,6.73,3.01,12.2v18.61h-1.96
		v-18.57c0-4.81-0.9-8.42-2.7-10.82c-2.85-3.81-6.87-5.71-12.07-5.71c-2.85,0-5.46,0.69-7.83,2.07c-2.37,1.38-4.11,3.19-5.21,5.45
		c-0.85,1.71-1.27,4.36-1.27,7.97v19.62h-1.96V481.33z"/>
	
		<linearGradient id="SVGID_00000060029686867873287020000012002717461182723262_" gradientUnits="userSpaceOnUse" x1="737.0058" y1="532.4805" x2="737.0058" y2="494.6641">
		<stop  offset="0" style="stop-color:#11170E"/>
		<stop  offset="0.0841" style="stop-color:#1F2C1C"/>
		<stop  offset="0.1844" style="stop-color:#283D24"/>
		<stop  offset="0.2939" style="stop-color:#2E4B29"/>
		<stop  offset="0.4141" style="stop-color:#33562C"/>
		<stop  offset="0.5507" style="stop-color:#355E2E"/>
		<stop  offset="0.7173" style="stop-color:#376330"/>
		<stop  offset="1" style="stop-color:#376430"/>
	</linearGradient>
	<path style="fill:url(#SVGID_00000060029686867873287020000012002717461182723262_);" d="M736.82,532.48
		c-5.12,0-9.53-1.85-13.22-5.54s-5.54-8.1-5.54-13.22c0-5.32,1.82-9.83,5.46-13.52c3.64-3.69,8.1-5.54,13.37-5.54
		c5.32,0,9.83,1.83,13.52,5.5c3.69,3.67,5.54,8.11,5.54,13.33c0,5.22-1.87,9.69-5.61,13.41
		C746.6,530.62,742.09,532.48,736.82,532.48z M737.04,496.47c-4.75,0-8.77,1.66-12.08,4.99s-4.95,7.36-4.95,12.11
		c0,4.75,1.65,8.79,4.95,12.11c3.3,3.33,7.3,4.99,12,4.99s8.71-1.67,12.04-5.02c3.32-3.35,4.99-7.37,4.99-12.08
		c0-4.75-1.65-8.79-4.95-12.11C745.74,498.13,741.74,496.47,737.04,496.47z"/>
	
		<linearGradient id="SVGID_00000076600430838099793900000012143828542546857363_" gradientUnits="userSpaceOnUse" x1="780.3207" y1="532.4805" x2="780.3207" y2="495.5684">
		<stop  offset="0" style="stop-color:#11170E"/>
		<stop  offset="0.0841" style="stop-color:#1F2C1C"/>
		<stop  offset="0.1844" style="stop-color:#283D24"/>
		<stop  offset="0.2939" style="stop-color:#2E4B29"/>
		<stop  offset="0.4141" style="stop-color:#33562C"/>
		<stop  offset="0.5507" style="stop-color:#355E2E"/>
		<stop  offset="0.7173" style="stop-color:#376330"/>
		<stop  offset="1" style="stop-color:#376430"/>
	</linearGradient>
	<path style="fill:url(#SVGID_00000076600430838099793900000012143828542546857363_);" d="M794.9,495.57h1.96v36.01h-1.96v-7.08
		c-1.4,2.11-2.83,3.69-4.28,4.75c-2.96,2.16-6.44,3.24-10.45,3.24c-5.26,0-9.42-1.63-12.47-4.9c-1.5-1.61-2.53-3.34-3.08-5.2
		c-0.55-1.86-0.83-4.47-0.83-7.83v-18.98h1.96v18.94c0,3.06,0.25,5.41,0.75,7.07s1.45,3.21,2.85,4.66c2.8,2.96,6.4,4.43,10.79,4.43
		c5.1,0,9.07-1.8,11.92-5.41c1.35-1.7,2.2-3.51,2.55-5.41c0.2-1.1,0.3-3.11,0.3-6.01V495.57z"/>
	
		<linearGradient id="SVGID_00000183951960542223942760000013519061219135282312_" gradientUnits="userSpaceOnUse" x1="815.8398" y1="532.4805" x2="815.8398" y2="494.6641">
		<stop  offset="0" style="stop-color:#11170E"/>
		<stop  offset="0.0841" style="stop-color:#1F2C1C"/>
		<stop  offset="0.1844" style="stop-color:#283D24"/>
		<stop  offset="0.2939" style="stop-color:#2E4B29"/>
		<stop  offset="0.4141" style="stop-color:#33562C"/>
		<stop  offset="0.5507" style="stop-color:#355E2E"/>
		<stop  offset="0.7173" style="stop-color:#376330"/>
		<stop  offset="1" style="stop-color:#376430"/>
	</linearGradient>
	<path style="fill:url(#SVGID_00000183951960542223942760000013519061219135282312_);" d="M815.99,532.48
		c-3.37,0-6.15-1.12-8.36-3.35c-2.21-2.23-3.34-5.08-3.39-8.55h2.11c0.05,3.04,0.97,5.48,2.75,7.33c1.78,1.84,4.13,2.77,7.04,2.77
		c2.56,0,4.76-0.86,6.59-2.59c1.83-1.73,2.75-3.8,2.75-6.2c0-3.81-2.24-6.36-6.7-7.67l-4.67-1.35c-4.87-1.4-7.31-4.26-7.31-8.57
		c0-2.71,0.93-4.99,2.79-6.84c1.86-1.85,4.12-2.78,6.78-2.78s4.83,0.83,6.52,2.49c1.68,1.66,2.67,3.97,2.98,6.93h-2.11
		c-0.6-5.07-3.14-7.61-7.61-7.61c-2.11,0-3.87,0.71-5.27,2.14c-1.41,1.43-2.11,3.22-2.11,5.38c0,2,0.54,3.51,1.62,4.51
		c1.08,1,3.15,1.9,6.21,2.71c7.23,1.9,10.85,5.41,10.85,10.52c0,2.96-1.13,5.49-3.39,7.59C821.79,531.43,819.1,532.48,815.99,532.48
		z"/>
	
		<linearGradient id="SVGID_00000165946102421523864090000012187004144829567657_" gradientUnits="userSpaceOnUse" x1="851.5082" y1="532.4805" x2="851.5082" y2="494.6641">
		<stop  offset="0" style="stop-color:#11170E"/>
		<stop  offset="0.0841" style="stop-color:#1F2C1C"/>
		<stop  offset="0.1844" style="stop-color:#283D24"/>
		<stop  offset="0.2939" style="stop-color:#2E4B29"/>
		<stop  offset="0.4141" style="stop-color:#33562C"/>
		<stop  offset="0.5507" style="stop-color:#355E2E"/>
		<stop  offset="0.7173" style="stop-color:#376330"/>
		<stop  offset="1" style="stop-color:#376430"/>
	</linearGradient>
	<path style="fill:url(#SVGID_00000165946102421523864090000012187004144829567657_);" d="M869.78,512.89v0.98h-34.43
		c0.3,4.88,1.98,8.9,5.05,12.06c3.06,3.16,6.8,4.74,11.22,4.74c2.96,0,5.72-0.85,8.29-2.54c2.56-1.69,4.54-3.99,5.95-6.88h2.18
		c-1.41,3.42-3.6,6.14-6.59,8.17c-2.99,2.03-6.27,3.05-9.83,3.05c-4.97,0-9.28-1.91-12.92-5.73c-3.64-3.82-5.46-8.31-5.46-13.48
		c0-5.12,1.78-9.5,5.35-13.15c3.57-3.64,7.86-5.46,12.88-5.46c4.92,0,9.2,1.81,12.84,5.45C867.96,503.74,869.78,508,869.78,512.89z
		 M835.35,512.07h32.32c-0.35-4.35-2.1-8.03-5.24-11.06c-3.14-3.02-6.79-4.54-10.96-4.54c-4.22,0-7.83,1.46-10.85,4.39
		C837.61,503.78,835.85,507.52,835.35,512.07z"/>
</g>
</svg>
