<?xml version="1.0" encoding="utf-8"?>
<!-- Generator: Adobe Illustrator 27.0.0, SVG Export Plug-In . SVG Version: 6.00 Build 0)  -->
<svg version="1.0" id="Layer_1" xmlns="http://www.w3.org/2000/svg" xmlns:xlink="http://www.w3.org/1999/xlink" x="0px" y="0px"
	 viewBox="0 0 595.28 841.89" style="enable-background:new 0 0 595.28 841.89;" xml:space="preserve">
<style type="text/css">
	.st0{fill:#FFFFFF;}
</style>
<g>
	<path class="st0" d="M131.96,491.23v4.23c0,3.09,0.72,5.96,4.45,5.96c3.01,0,4.59-1.94,4.59-4.45c0-5.02-5.24-8.4-10.48-12.2
		c-5.31-4.38-10.62-7.54-10.62-16.29c0-11.27,6.31-16.08,16.86-16.08c11.48,0,16.51,5.6,16.51,14.42v5.17h-12.34v-3.09
		c0-2.87-0.43-6.32-4.16-6.32c-2.8,0-4.52,1.65-4.52,4.31c0,3.45,5.6,7.39,10.98,11.41c4.88,4.31,10.98,7.1,10.98,18.66
		c0,5.53-4.16,14.64-17.94,14.64c-13.06,0-17.08-8.25-17.08-14.21v-6.17H131.96z"/>
	<path class="st0" d="M159.45,476.95c0-5.38,2.8-13.06,15.14-13.06c12.34,0,15.14,7.68,15.14,13.06v4.88h-12.34v-5.74
		c0-1.58,0-3.73-2.8-3.73s-2.8,2.15-2.8,3.73v23.32c0,1.58,0,3.73,2.8,3.73s2.8-2.15,2.8-3.73v-8.25h12.34v7.39
		c0,5.38-2.8,13.06-15.14,13.06c-12.34,0-15.14-7.68-15.14-13.06V476.95z"/>
	<path class="st0" d="M195.33,464.82h11.7v8.11h0.14c1.72-4.23,3.23-9.04,8.83-9.04v14.93h-2.87c-4.23,0-5.45,2.66-5.45,5.81v26.05
		h-12.34V464.82z"/>
	<path class="st0" d="M219.23,476.95c0-5.38,2.8-13.06,15.14-13.06c12.34,0,15.14,7.68,15.14,13.06v21.6
		c0,5.38-2.8,13.06-15.14,13.06c-12.34,0-15.14-7.68-15.14-13.06V476.95z M231.57,499.41c0,1.58,0,3.73,2.8,3.73s2.8-2.15,2.8-3.73
		v-23.32c0-1.58,0-3.73-2.8-3.73s-2.8,2.15-2.8,3.73V499.41z"/>
	<path class="st0" d="M256.11,453.34h12.34v57.34h-12.34V453.34z"/>
	<path class="st0" d="M276.06,453.34h12.34v57.34h-12.34V453.34z"/>
	<path class="st0" d="M313.09,453.34h19.66c11.27,0,14.35,6.53,14.35,15.36v27.27c0,10.48-7.39,14.71-14.35,14.71h-19.66V453.34z
		 M326.3,500.91h2.08c3.52,0,5.53-1.51,5.53-4.88v-28.06c0-3.37-2.01-4.88-5.53-4.88h-2.08V500.91z"/>
	<path class="st0" d="M352.85,476.95c0-5.38,2.8-13.06,15.14-13.06s15.14,7.68,15.14,13.06v21.6c0,5.38-2.8,13.06-15.14,13.06
		s-15.14-7.68-15.14-13.06V476.95z M365.19,499.41c0,1.58,0,3.73,2.8,3.73s2.8-2.15,2.8-3.73v-23.32c0-1.58,0-3.73-2.8-3.73
		s-2.8,2.15-2.8,3.73V499.41z"/>
	<path class="st0" d="M386.58,464.82h12.85l3.44,32.22h0.14l3.3-32.22h11.55l2.8,32.22h0.14l3.95-32.22h12.34l-8.83,45.86h-12.99
		l-3.52-30.5h-0.14l-3.09,30.5h-12.99L386.58,464.82z"/>
	<path class="st0" d="M440.55,464.82h11.91v5.1h0.14c2.22-3.88,4.67-6.03,9.4-6.03c5.88,0,8.83,4.31,8.83,9.83v36.96h-12.34v-31.36
		c0-1.65,0-4.38-2.8-4.38s-2.8,3.3-2.8,4.38v31.36h-12.34V464.82z"/>
</g>
</svg>
